Coordinates
version=1
nRows=26
nColumns=30
inDegrees=yes

Units are S.I. units (second, meters, Newtons, ...)
Angles are in degrees.

endheader
time	floatyaw	floatroll	floatpitch	floatx	floaty	floatz	pro_sup_l	deviation_l	flexion_l	cmc_flexion_l	cmc_abduction_l	mp_flexion_l	ip_flexion_l	2mcp_flexion_l	2mcp_abduction_l	2pm_flexion_l	2md_flexion_l	3mcp_flexion_l	3mcp_abduction_l	3pm_flexion_l	3md_flexion_l	4mcp_flexion_l	4mcp_abduction_l	4pm_flexion_l	4md_flexion_l	5mcp_flexion_l	5mcp_abduction_l	5pm_flexion_l	5md_flexion_l
-0.495000	-160.147433	-5.066637	-73.570646	0.069650	-0.174749	-0.022272	100.303734	7.396768	0.120316	15.998391	13.444359	-25.628695	-43.918699	28.223642	7.236796	44.081897	30.400523	25.673603	4.226969	43.562477	28.999625	15.164687	-4.439151	50.851456	36.797997	2.752123	-8.425539	59.965338	43.943067
-0.485000	-160.147433	-5.066637	-73.570646	0.069644	-0.174703	-0.022271	100.271486	7.383090	0.161560	15.936307	13.489528	-25.585720	-43.913681	28.259051	7.237006	44.065194	30.368220	25.705273	4.228667	43.515479	28.980726	15.214950	-4.437580	50.785909	36.764378	2.810509	-8.425567	59.874365	43.945839
-0.475000	-160.147433	-5.066637	-73.570646	0.069636	-0.174659	-0.022285	100.250393	7.367734	0.199844	15.869779	13.549964	-25.545752	-43.919447	28.278383	7.234159	44.065360	30.351032	25.725329	4.232589	43.479925	28.969831	15.242853	-4.437857	50.751177	36.725146	2.845520	-8.426335	59.807207	43.952646
-0.465000	-160.147433	-5.066637	-73.570646	0.069626	-0.174616	-0.022311	100.238667	7.350142	0.235787	15.808313	13.618156	-25.528743	-43.937106	28.279054	7.232395	44.080363	30.347835	25.725433	4.236519	43.475370	28.974023	15.250119	-4.439795	50.744838	36.683505	2.851873	-8.428660	59.778575	43.959819
-0.455000	-160.147433	-5.066637	-73.570646	0.069612	-0.174570	-0.022344	100.234376	7.330741	0.270710	15.761907	13.685693	-25.545880	-43.965310	28.265688	7.235724	44.101424	30.351612	25.701345	4.237647	43.512165	28.996906	15.245492	-4.442771	50.752962	36.641774	2.832430	-8.432784	59.789028	43.965218
-0.445000	-160.147433	-5.066637	-73.570646	0.069596	-0.174512	-0.022382	100.235856	7.309762	0.307209	15.737160	13.747762	-25.596549	-44.001828	28.247280	7.246054	44.117485	30.353354	25.654401	4.233905	43.585902	29.035864	15.239853	-4.446295	50.757065	36.601423	2.796247	-8.438028	59.824941	43.968506
-0.435000	-160.147433	-5.066637	-73.570646	0.069573	-0.174428	-0.022425	100.242146	7.286213	0.349763	15.734101	13.804616	-25.668987	-44.045217	28.231685	7.261204	44.121891	30.347108	25.591352	4.224961	43.677812	29.081375	15.240573	-4.450193	50.742805	36.563677	2.754702	-8.442845	59.865350	43.970663
-0.425000	-160.147433	-5.066637	-73.570646	0.069543	-0.174306	-0.022480	100.254038	7.258071	0.404509	15.746040	13.859108	-25.744028	-44.095674	28.220410	7.274665	44.117570	30.333482	25.522452	4.212464	43.761789	29.119485	15.247860	-4.454329	50.706514	36.530316	2.717590	-8.445568	59.892202	43.973155
-0.415000	-160.147433	-5.066637	-73.570646	0.069501	-0.174135	-0.022562	100.275982	7.224085	0.477294	15.762535	13.911951	-25.800497	-44.153662	28.207030	7.278354	44.117108	30.319409	25.458067	4.199591	43.815660	29.137140	15.255191	-4.458228	50.656909	36.503792	2.691403	-8.445779	59.898164	43.976352
-0.405000	-160.147433	-5.066637	-73.570646	0.069441	-0.173913	-0.022684	100.318138	7.186351	0.570197	15.773111	13.957809	-25.820742	-44.215747	28.180075	7.267159	44.137035	30.314176	25.404701	4.190259	43.830925	29.127901	15.253644	-4.461016	50.611076	36.485931	2.680396	-8.445635	59.887381	43.977029
-0.395000	-160.147433	-5.066637	-73.570646	0.069360	-0.173640	-0.022861	100.397300	7.151911	0.678327	15.769109	13.985150	-25.795241	-44.269808	28.128085	7.242032	44.189558	30.324181	25.362240	4.187974	43.815036	29.094509	15.237764	-4.461666	50.585835	36.475187	2.688711	-8.449858	59.869621	43.966234
-0.385000	-160.147433	-5.066637	-73.570646	0.069255	-0.173321	-0.023105	100.535644	7.132131	0.789136	15.743489	13.981027	-25.725395	-44.294060	28.043738	7.209077	44.276624	30.349434	25.324437	4.194169	43.784887	29.046428	15.210103	-4.459293	50.587535	36.463692	2.721067	-8.463440	59.852732	43.929959
-0.375000	-160.147433	-5.066637	-73.570646	0.069124	-0.172959	-0.023433	100.757131	7.140267	0.885214	15.690848	13.939085	-25.623669	-44.263319	27.926055	7.175153	44.389156	30.383310	25.283197	4.206383	43.756337	28.994047	15.182658	-4.453361	50.605003	36.436684	2.781036	-8.487555	59.838362	43.854090
-0.365000	-160.147433	-5.066637	-73.570646	0.068960	-0.172554	-0.023867	101.081900	7.189139	0.949468	15.609677	13.866467	-25.510788	-44.161226	27.781691	7.143244	44.511061	30.415221	25.234694	4.217621	43.736914	28.943629	15.174598	-4.443825	50.610496	36.376661	2.867893	-8.515937	59.822345	43.732199
-0.355000	-160.147433	-5.066637	-73.570646	0.068750	-0.172097	-0.024440	101.519352	7.290850	0.970224	15.505886	13.784544	-25.410563	-43.992221	27.625648	7.110875	44.625825	30.434928	25.183779	4.218368	43.725344	28.895861	15.206193	-4.431127	50.570790	36.271734	2.973691	-8.534614	59.798523	43.571956
-0.345000	-160.147433	-5.066637	-73.570646	0.068460	-0.171564	-0.025195	102.061151	7.458803	0.943811	15.394174	13.721103	-25.343641	-43.785554	27.479453	7.072512	44.723425	30.436975	25.143681	4.201307	43.716141	28.847715	15.290005	-4.415853	50.464879	36.123823	3.081932	-8.526354	59.764256	43.395725
-0.335000	-160.147433	-5.066637	-73.570646	0.068039	-0.170921	-0.026176	102.676157	7.710100	0.873342	15.294214	13.697110	-25.321820	-43.586939	27.364633	7.024174	44.805176	30.423577	25.130408	4.166466	43.705019	28.795491	15.422487	-4.398075	50.299270	35.950958	3.168884	-8.478142	59.725453	43.233503
-0.325000	-160.147433	-5.066637	-73.570646	0.067423	-0.170125	-0.027419	103.309599	8.065731	0.763818	15.221745	13.716108	-25.344588	-43.439997	27.292803	6.967138	44.883846	30.404413	25.154383	4.123304	43.692240	28.737400	15.580827	-4.376685	50.110955	35.780741	3.208482	-8.387555	59.697632	43.110487
-0.315000	-160.147433	-5.066637	-73.570646	0.066540	-0.169132	-0.028940	103.888447	8.547186	0.615045	15.178120	13.764101	-25.398770	-43.365811	27.258061	6.908243	44.977321	30.392589	25.214072	4.087463	43.682819	28.674858	15.729275	-4.349205	49.953481	35.637285	3.180990	-8.264416	59.699931	43.035073
-0.305000	-160.147433	-5.066637	-73.570646	0.065324	-0.167900	-0.030730	104.333981	9.170425	0.414867	15.143772	13.821377	-25.460722	-43.350921	27.237719	6.856556	45.096835	30.397534	25.295963	4.073373	43.682883	28.611582	15.835344	-4.312487	49.869997	35.528075	3.083725	-8.127505	59.742661	42.993724
-0.295000	-160.147433	-5.066637	-73.570646	0.063714	-0.166392	-0.032762	104.580593	9.940163	0.135843	15.080442	13.879471	-25.499961	-43.350633	27.202354	6.818505	45.234255	30.417415	25.381732	4.086794	43.691802	28.549794	15.889923	-4.264342	49.864628	35.437782	2.939601	-7.999211	59.813704	42.955579
-0.285000	-160.147433	-5.066637	-73.570646	0.061660	-0.164563	-0.035002	104.596836	10.848300	-0.262557	14.943410	13.952640	-25.484387	-43.307646	27.129997	6.794314	45.355057	30.434904	25.458791	4.121436	43.692806	28.484906	15.920085	-4.205327	49.886856	35.333191	2.798202	-7.900849	59.871042	42.883777
-0.275000	-160.147433	-5.066637	-73.570646	0.059125	-0.162358	-0.037424	104.401865	11.879381	-0.827469	14.699704	14.077021	-25.388419	-43.179069	27.016535	6.777413	45.403358	30.420051	25.527671	4.161088	43.649275	28.402889	15.984337	-4.139293	49.840500	35.178294	2.726100	-7.848956	59.847543	42.747267
-0.265000	-160.147433	-5.066637	-73.570646	0.056083	-0.159710	-0.040018	104.070238	13.022401	-1.606406	14.344307	14.299349	-25.203351	-42.960090	26.876364	6.756736	45.321441	30.341674	25.600639	4.185962	43.514487	28.284849	16.149013	-4.071938	49.618771	34.953297	2.787995	-7.851669	59.670501	42.528941
-0.255000	-160.147433	-5.066637	-73.570646	0.052518	-0.156550	-0.042784	103.721168	14.282887	-2.645219	13.906414	14.664269	-24.944629	-42.691495	26.732333	6.720738	45.078587	30.183911	25.690721	4.180646	43.255771	28.119142	16.456140	-4.008395	49.153617	34.668566	3.025328	-7.905343	59.292274	42.230168
-0.245000	-160.147433	-5.066637	-73.570646	0.048423	-0.152830	-0.045733	103.493371	15.685751	-3.988855	13.442440	15.209709	-24.647954	-42.442346	26.600259	6.661421	44.695762	29.959615	25.796740	4.140694	42.883193	27.915189	16.899022	-3.951897	48.458096	34.366369	3.441061	-7.992841	58.720900	41.873103
